# xmcd
#
# Track frame offsets:
#	183
#	10120
#	22758
#	34268
#	50375
#	61798
#	73200
#	85215
#	97835
#	108408
#	121958
#	138778
#	153038
#	164153
#
# Disc length: 2340 seconds
#
# Revision: 1
# Processed by: cddbd v1.5.2PL0 Copyright (c) Steve Scherf et al.
# Submitted via: EasyCDDAExtractor 15.3.0.1
#
DISCID=a709220e
DTITLE=Various Artist - The Spirit Of Blues - Vol 1
DYEAR=1993
DGENRE=Blues
TTITLE0=Johne Lee Hooker - Dimples
TTITLE1=Muddy Waters - Mean Mistreater
TTITLE2=Howlin' Wolf - Howlin' For My Darling
TTITLE3=B.B.King - It's My Own Fault Baby
TTITLE4=Sony Boy Williamson - Born Blind
TTITLE5=Memphis Slim - Feelin' Love
TTITLE6=Canned Heat - Got My Mojo Working
TTITLE7=Little Walter - I Got to Find My Baby
TTITLE8=Elmore James - Done Something Wrong
TTITLE9=Lightning Slim - Good Morning Heartache
TTITLE10=Jonny Winter - Kind Hearted Women
TTITLE11=Ray Charles - Walkin' And Talkin'
TTITLE12=Eric Clapton - Snake Drive
TTITLE13=Bo Diddley - I'm Looking For A Woman
EXTD=
EXTT0=
EXTT1=
EXTT2=
EXTT3=
EXTT4=
EXTT5=
EXTT6=
EXTT7=
EXTT8=
EXTT9=
EXTT10=
EXTT11=
EXTT12=
EXTT13=
PLAYORDER=
